<svg xmlns="http://www.w3.org/2000/svg" width="512" height="512" viewBox="0 0 512 512" role="img" aria-label="Bruno">
  <defs>
    <radialGradient id="g" cx="30%" cy="25%" r="80%">
      <stop offset="0%" stop-color="#ffedd5"/>
      <stop offset="55%" stop-color="#0b0b0b"/>
      <stop offset="100%" stop-color="#000000"/>
    </radialGradient>
    <filter id="glow" x="-50%" y="-50%" width="200%" height="200%">
      <feGaussianBlur stdDeviation="10" result="b"/>
      <feMerge>
        <feMergeNode in="b"/>
        <feMergeNode in="SourceGraphic"/>
      </feMerge>
    </filter>
  </defs>
  <rect width="512" height="512" rx="256" fill="url(#g)"/>
  <circle cx="256" cy="256" r="210" fill="none" stroke="#f97316" stroke-width="14" stroke-dasharray="10 12" opacity="0.55"/>
  <g filter="url(#glow)" transform="translate(0 6)">
    <path d="M168 262c0-66 40-116 88-116s88 50 88 116v28c0 66-40 116-88 116s-88-50-88-116v-28z" fill="#0b0b0b"/>
    <path d="M206 274c0-34 22-58 50-58s50 24 50 58v18c0 34-22 58-50 58s-50-24-50-58v-18z" fill="#111827" opacity="0.9"/>
    <path d="M214 264c12-12 26-18 42-18s30 6 42 18" fill="none" stroke="#f97316" stroke-width="10" stroke-linecap="round"/>
    <circle cx="232" cy="274" r="9" fill="#fb923c"/>
    <circle cx="280" cy="274" r="9" fill="#fb923c"/>
    <path d="M236 306c10 14 30 14 40 0" fill="none" stroke="#fb923c" stroke-width="10" stroke-linecap="round"/>
    <path d="M180 232c-24-14-38-40-38-64 0-28 20-48 48-48 26 0 48 20 52 46" fill="none" stroke="#f97316" stroke-width="12" stroke-linecap="round" opacity="0.9"/>
    <path d="M332 232c24-14 38-40 38-64 0-28-20-48-48-48-26 0-48 20-52 46" fill="none" stroke="#f97316" stroke-width="12" stroke-linecap="round" opacity="0.9"/>
    <path d="M212 350c12-24 28-38 44-38s32 14 44 38" fill="none" stroke="#f97316" stroke-width="10" stroke-linecap="round" opacity="0.8"/>
  </g>
</svg>
