<svg xmlns="http://www.w3.org/2000/svg" width="512" height="512" viewBox="0 0 512 512" role="img" aria-label="Muffin">
  <defs>
    <radialGradient id="g" cx="30%" cy="25%" r="80%">
      <stop offset="0%" stop-color="#ffedd5"/>
      <stop offset="55%" stop-color="#0b0b0b"/>
      <stop offset="100%" stop-color="#000000"/>
    </radialGradient>
    <filter id="glow" x="-50%" y="-50%" width="200%" height="200%">
      <feGaussianBlur stdDeviation="10" result="b"/>
      <feMerge>
        <feMergeNode in="b"/>
        <feMergeNode in="SourceGraphic"/>
      </feMerge>
    </filter>
  </defs>
  <rect width="512" height="512" rx="256" fill="url(#g)"/>
  <circle cx="256" cy="256" r="210" fill="none" stroke="#f97316" stroke-width="14" stroke-dasharray="10 12" opacity="0.55"/>
  <g filter="url(#glow)" transform="translate(0 6)">
    <path d="M170 250c0-56 38-98 86-98s86 42 86 98v40c0 56-38 98-86 98s-86-42-86-98v-40z" fill="#111827" opacity="0.95"/>
    <path d="M196 248c0-44 26-76 60-76s60 32 60 76v40c0 44-26 76-60 76s-60-32-60-76v-40z" fill="#0b0b0b"/>
    <path d="M208 240c10-10 22-15 36-15s26 5 36 15" fill="none" stroke="#f97316" stroke-width="10" stroke-linecap="round"/>
    <path d="M216 262c8-10 18-15 30-15s22 5 30 15" fill="none" stroke="#fb923c" stroke-width="8" stroke-linecap="round" opacity="0.95"/>
    <circle cx="228" cy="254" r="10" fill="#f97316"/>
    <circle cx="284" cy="254" r="10" fill="#f97316"/>
    <path d="M236 290c10 16 30 16 40 0" fill="none" stroke="#f97316" stroke-width="10" stroke-linecap="round"/>
    <path d="M178 224c-18-16-30-38-30-58 0-26 20-46 46-46 20 0 38 12 46 30" fill="none" stroke="#fb923c" stroke-width="12" stroke-linecap="round" opacity="0.9"/>
    <path d="M334 224c18-16 30-38 30-58 0-26-20-46-46-46-20 0-38 12-46 30" fill="none" stroke="#fb923c" stroke-width="12" stroke-linecap="round" opacity="0.9"/>
    <path d="M256 310c0 0 26 6 42 22" fill="none" stroke="#f97316" stroke-width="10" stroke-linecap="round" opacity="0.75"/>
    <path d="M256 310c0 0-26 6-42 22" fill="none" stroke="#f97316" stroke-width="10" stroke-linecap="round" opacity="0.75"/>
  </g>
</svg>
